<svg width="1433" height="370" viewBox="0 0 1433 370" fill="none" xmlns="http://www.w3.org/2000/svg">
<path d="M62.8907 156.112V17.1724H8.92067V0.000120591H135.594V17.1724H81.6241V156.112H62.8907ZM185.611 158.565C150.597 158.565 127.404 132.918 127.404 97.4584C127.404 57.0924 153.496 35.2368 183.381 35.2368C217.725 35.2368 238.243 59.7686 237.574 100.135H145.914C147.029 125.336 161.748 142.508 185.611 142.508C203.452 142.508 214.603 134.256 219.509 118.868H237.128C231.998 142.954 211.927 158.565 185.611 158.565ZM147.029 84.7465H218.394C215.049 63.1138 202.783 51.071 183.381 51.071C164.647 51.071 150.82 63.5599 147.029 84.7465ZM261.921 156.112V37.913H278.424L280.208 56.8694H280.654C286.453 42.8193 297.604 37.2439 309.869 37.2439H321.689V55.9773H309.646C290.467 55.9773 280.431 66.4591 280.431 85.4155V156.112H261.921ZM342.939 156.112V37.913H359.442L361.226 56.8694H361.672C367.471 42.8193 378.621 37.2439 390.887 37.2439H402.707V55.9773H390.664C371.485 55.9773 361.449 66.4591 361.449 85.4155V156.112H342.939ZM456.128 157.896C430.481 157.896 414.424 144.961 414.424 123.551C414.424 104.149 426.913 92.329 450.107 89.6528L481.106 85.8616C492.48 84.5235 497.832 79.1711 497.832 70.4734C497.832 59.7686 488.466 50.6249 468.84 51.071C450.107 51.517 437.395 60.6607 435.388 74.7107H417.1C419.331 51.517 440.294 35.2368 469.732 35.2368C499.617 35.2368 516.343 50.8479 516.343 73.5956V129.573C516.343 138.717 520.134 141.393 527.94 141.393H530.393V156.112H523.256C508.091 156.112 500.063 148.529 499.617 134.702H499.171C492.926 149.421 477.538 157.896 456.128 157.896ZM460.812 142.062C484.005 142.062 498.279 127.12 498.279 105.041V90.5449C495.602 97.0124 488.689 100.804 479.099 101.919L451.222 105.487C439.848 107.048 433.381 113.293 433.381 122.882C433.381 134.925 443.416 142.062 460.812 142.062ZM604.157 156.112V0.000120591H622.891L709.421 126.228V0.000120591H728.155V156.112H709.421L622.891 30.7764V156.112H604.157ZM814.147 158.565C779.802 158.565 756.162 133.141 756.162 95.8973C756.162 59.9916 779.802 35.2368 814.147 35.2368C848.491 35.2368 872.131 59.9916 872.131 95.8973C872.131 133.141 848.491 158.565 814.147 158.565ZM814.147 142.508C837.341 142.508 853.175 123.551 853.175 95.8973C853.175 69.3583 837.341 51.294 814.147 51.294C790.953 51.294 775.119 69.3583 775.119 95.8973C775.119 123.551 790.953 142.508 814.147 142.508ZM942.284 158.565C910.169 158.565 891.882 145.63 890.098 121.544H909.277C911.285 135.371 922.658 142.731 941.392 142.731C959.01 142.731 969.046 135.594 969.046 122.659C969.046 115.3 964.139 109.947 954.104 107.94L923.104 101.696C903.256 97.6814 892.997 87.1997 892.997 71.1425C892.997 51.74 909.723 35.2368 936.262 35.2368C961.686 35.2368 979.528 49.2868 982.427 72.0345H963.47C961.686 59.5456 950.535 51.071 936.485 51.071C921.097 51.071 911.731 58.8765 911.731 69.5813C911.731 78.056 917.529 82.7393 928.903 84.9695L958.341 90.7679C978.636 94.7822 987.556 105.041 987.556 121.767C987.556 143.623 969.046 158.565 942.284 158.565ZM1057.08 156.112C1034.11 156.112 1021.84 144.292 1021.84 122.436V53.5241H997.757V37.913H1021.84V0.000120591H1040.35V37.913H1072.25V53.5241H1040.35V122.436C1040.35 134.256 1046.15 140.724 1057.08 140.724H1072.25V156.112H1057.08ZM1094.1 156.112V37.913H1110.6L1112.38 56.8694H1112.83C1118.63 42.8193 1129.78 37.2439 1142.04 37.2439H1153.86V55.9773H1141.82C1122.64 55.9773 1112.61 66.4591 1112.61 85.4155V156.112H1094.1ZM1207.29 157.896C1181.64 157.896 1165.58 144.961 1165.58 123.551C1165.58 104.149 1178.07 92.329 1201.26 89.6528L1232.26 85.8616C1243.64 84.5235 1248.99 79.1711 1248.99 70.4734C1248.99 59.7686 1239.62 50.6249 1220 51.071C1201.26 51.517 1188.55 60.6607 1186.54 74.7107H1168.26C1170.49 51.517 1191.45 35.2368 1220.89 35.2368C1250.77 35.2368 1267.5 50.8479 1267.5 73.5956V129.573C1267.5 138.717 1271.29 141.393 1279.1 141.393H1281.55V156.112H1274.41C1259.25 156.112 1251.22 148.529 1250.77 134.702H1250.33C1244.08 149.421 1228.69 157.896 1207.29 157.896ZM1211.97 142.062C1235.16 142.062 1249.44 127.12 1249.44 105.041V90.5449C1246.76 97.0124 1239.85 100.804 1230.26 101.919L1202.38 105.487C1191 107.048 1184.54 113.293 1184.54 122.882C1184.54 134.925 1194.57 142.062 1211.97 142.062ZM52.6319 343.026V302.883H10.0358V287.272H52.6319V247.129H69.1352V287.272H111.285V302.883H69.1352V343.026H52.6319ZM190.357 367.112V211H265.291C292.499 211 310.117 227.057 310.117 249.805C310.117 267.646 299.858 281.027 279.341 285.934V286.826C301.865 290.84 313.908 304.89 313.908 324.516C313.908 349.717 294.952 367.112 267.298 367.112H190.357ZM268.859 350.609C284.47 350.609 295.398 338.789 295.398 322.508C295.398 305.113 281.794 295.969 265.068 295.969H208.867V350.609H268.859ZM263.952 279.243C280.679 279.243 291.83 268.092 291.83 252.258C291.83 237.985 281.348 227.503 266.406 227.503H208.867V279.243H263.952ZM338.583 367.112V248.913H355.086L356.87 267.869H357.316C363.115 253.819 374.266 248.244 386.531 248.244H398.351V266.977H386.308C367.129 266.977 357.093 277.459 357.093 296.416V367.112H338.583ZM419.601 367.112V248.913H438.111V367.112H419.601ZM428.967 231.295C420.493 231.295 414.025 224.827 414.025 216.353C414.025 207.878 420.493 201.633 428.967 201.633C437.442 201.633 443.686 207.878 443.686 216.353C443.686 224.827 437.442 231.295 428.967 231.295ZM469.055 367.112V202.079H487.565V310.912L546.441 248.913H569.635L527.039 291.955L576.103 367.112H554.47L514.55 304.667L487.565 331.875V367.112H469.055ZM593.63 367.112V202.079H612.141V310.912L671.017 248.913H694.211L651.615 291.955L700.678 367.112H679.046L639.126 304.667L612.141 331.875V367.112H593.63ZM752.105 368.896C726.458 368.896 710.4 355.961 710.4 334.551C710.4 315.149 722.889 303.329 746.083 300.653L777.082 296.862C788.456 295.523 793.809 290.171 793.809 281.473C793.809 270.769 784.442 261.625 764.817 262.071C746.083 262.517 733.371 271.661 731.364 285.711H713.077C715.307 262.517 736.27 246.237 765.709 246.237C795.593 246.237 812.319 261.848 812.319 284.596V340.573C812.319 349.717 816.11 352.393 823.916 352.393H826.369V367.112H819.233C804.068 367.112 796.039 359.529 795.593 345.702H795.147C788.902 360.421 773.514 368.896 752.105 368.896ZM756.788 353.062C779.982 353.062 794.255 338.12 794.255 316.041V301.545C791.579 308.012 784.665 311.804 775.075 312.919L747.198 316.487C735.824 318.048 729.357 324.293 729.357 333.882C729.357 345.925 739.393 353.062 756.788 353.062ZM900.134 367.112V211H918.867V278.128H1008.52V211H1027.25V367.112H1008.52V295.3H918.867V367.112H900.134ZM1102.02 369.565C1075.7 369.565 1060.09 353.062 1060.09 327.415V248.913H1078.6V324.293C1078.6 342.58 1088.19 353.285 1107.37 353.285C1127.66 353.285 1141.49 337.897 1141.49 315.595V248.913H1160V367.112H1143.5L1141.71 347.04C1134.13 361.536 1120.3 369.565 1102.02 369.565ZM1190.36 367.112V248.913H1206.86L1208.65 268.984C1216.9 254.711 1231.62 246.237 1248.79 246.237C1273.77 246.237 1290.27 262.74 1290.27 288.387V367.112H1271.76V291.509C1271.76 273.222 1262.17 262.517 1243.66 262.517C1223.14 262.517 1208.87 278.128 1208.87 300.876V367.112H1190.36ZM1366.12 367.112C1343.15 367.112 1330.89 355.292 1330.89 333.436V264.524H1306.8V248.913H1330.89V211H1349.4V248.913H1381.29V264.524H1349.4V333.436C1349.4 345.256 1355.2 351.724 1366.12 351.724H1381.29V367.112H1366.12Z" fill="black"/>
<path d="M1412.8 244.027C1403.09 244.027 1396.11 237.049 1396.11 227.341C1396.11 217.709 1403.09 210.731 1412.8 210.731C1422.43 210.731 1429.33 217.709 1429.33 227.341C1429.33 237.049 1422.43 244.027 1412.8 244.027ZM1412.8 240.917C1420.68 240.917 1426.07 235.381 1425.92 227.341C1426.07 219.378 1420.68 213.841 1412.8 213.841C1404.76 213.841 1399.37 219.378 1399.52 227.341C1399.37 235.381 1404.76 240.917 1412.8 240.917ZM1405.67 236.443V218.24H1414.92C1417.95 218.24 1420.23 220.364 1420.23 223.17C1420.23 225.673 1418.86 227.341 1416.13 227.948V228.1C1418.03 228.479 1418.41 229.389 1418.79 230.299L1421.21 236.443H1417.95L1415.75 230.603C1415.37 229.693 1414.99 229.313 1413.48 229.313H1408.7V236.443H1405.67ZM1413.71 226.735C1415.83 226.735 1417.19 225.445 1417.19 223.625C1417.19 222.032 1415.98 220.819 1414.01 220.819H1408.7V226.735H1413.71Z" fill="black"/>
</svg>
