<svg width="1433" height="379" viewBox="0 0 1433 379" fill="none" xmlns="http://www.w3.org/2000/svg">
<path d="M17.6183 165.479V9.36682H92.5519C119.76 9.36682 137.378 25.424 137.378 48.1717C137.378 66.0131 127.12 79.3941 106.602 84.3004V85.1925C129.127 89.2068 141.17 103.257 141.17 122.882C141.17 148.083 122.213 165.479 94.5591 165.479H17.6183ZM96.1202 148.975C111.731 148.975 122.659 137.155 122.659 120.875C122.659 103.48 109.055 94.3362 92.3289 94.3362H36.1287V148.975H96.1202ZM91.2138 77.6099C107.94 77.6099 119.091 66.4591 119.091 50.6249C119.091 36.3518 108.609 25.8701 93.667 25.8701H36.1287V77.6099H91.2138ZM165.212 165.479V47.2797H181.715L183.499 66.2361H183.945C189.744 52.186 200.894 46.6106 213.16 46.6106H224.98V65.344H212.937C193.758 65.344 183.722 75.8258 183.722 94.7822V165.479H165.212ZM242.745 165.479V47.2797H261.255V165.479H242.745ZM252.112 29.6613C243.637 29.6613 237.17 23.1939 237.17 14.7192C237.17 6.24459 243.637 0.000119656 252.112 0.000119656C260.586 0.000119656 266.831 6.24459 266.831 14.7192C266.831 23.1939 260.586 29.6613 252.112 29.6613ZM291.53 165.479V0.446161H310.04V109.278L368.917 47.2797H392.11L349.514 90.3219L398.578 165.479H376.945L337.025 103.034L310.04 130.242V165.479H291.53ZM411.532 165.479V0.446161H430.042V109.278L488.919 47.2797H512.113L469.516 90.3219L518.58 165.479H496.947L457.027 103.034L430.042 130.242V165.479H411.532ZM564.541 167.263C539.117 167.263 524.844 153.882 524.844 132.249C524.844 113.516 536.441 99.9116 558.296 96.5664L588.403 92.106C599.777 90.3219 605.13 86.9766 605.13 78.279C605.13 67.1282 595.763 59.9916 578.591 59.9916C560.08 59.9916 550.937 67.5742 547.145 80.0631H528.189C532.649 58.6535 552.944 44.6035 578.368 44.6035C608.029 44.6035 623.64 57.9845 623.64 81.8472V138.94C623.64 148.083 627.431 151.205 635.237 151.205H641.927V165.479H630.554C615.388 165.479 607.36 157.896 606.914 144.069H606.022C599.777 158.788 584.389 167.263 564.541 167.263ZM567.886 151.874C591.972 151.874 605.576 136.04 605.576 112.178V96.7894C602.007 103.48 597.101 106.602 588.626 107.94L561.641 112.178C549.599 114.185 543.8 122.213 543.8 131.803C543.8 144.738 552.721 151.874 567.886 151.874ZM711.714 165.479V9.36682H730.448V76.4949H820.1V9.36682H838.834V165.479H820.1V93.6671H730.448V165.479H711.714ZM908.354 167.932C883.153 167.932 867.988 151.428 867.988 125.782V47.2797H886.498V122.659C886.498 140.947 895.419 151.651 913.706 151.651C933.109 151.651 945.821 136.263 945.821 113.962V47.2797H964.331V165.479H947.828L946.267 145.407C938.684 160.126 925.526 167.932 908.354 167.932ZM993.684 165.479V47.2797H1010.19L1011.97 67.3512C1020.22 53.0781 1034.5 44.6035 1051.22 44.6035C1074.86 44.6035 1090.03 61.1067 1090.03 86.7536V165.479H1071.52V89.8759C1071.52 71.5885 1063.04 60.8837 1045.87 60.8837C1026.24 60.8837 1012.19 76.4949 1012.19 99.2426V165.479H993.684ZM1151.85 165.479C1136.01 165.479 1126.2 156.335 1126.2 141.393V62.8908H1102.12V47.2797H1126.2V9.36682H1144.71V47.2797H1176.6V62.8908H1144.71V139.386C1144.71 146.299 1148.5 150.09 1155.42 150.09H1176.6V165.479H1151.85ZM54.1931 352.393V312.25H11.5969V296.639H54.1931V256.496H70.6963V296.639H112.846V312.25H70.6963V352.393H54.1931ZM231.988 376.479V237.539H178.018V220.367H304.691V237.539H250.721V376.479H231.988ZM351.722 378.932C316.931 378.932 294.852 353.508 294.852 318.717C294.852 282.142 319.384 255.603 351.722 255.603C386.066 255.603 406.138 280.135 405.469 320.501H313.363C314.701 346.371 328.974 362.874 351.722 362.874C368.671 362.874 381.16 354.177 386.066 339.235H403.016C397.663 362.874 377.146 378.932 351.722 378.932ZM314.478 305.336H386.735C383.613 283.927 371.347 271.438 351.722 271.438C332.542 271.438 318.269 284.596 314.478 305.336ZM427.866 376.479V258.28H444.369L446.154 277.236H446.6C452.398 263.186 463.549 257.611 475.815 257.611H487.635V276.344H475.592C456.412 276.344 446.377 286.826 446.377 305.782V376.479H427.866ZM505.399 376.479V258.28H521.903L523.687 277.236H524.133C529.931 263.186 541.082 257.611 553.348 257.611H565.168V276.344H553.125C533.946 276.344 523.91 286.826 523.91 305.782V376.479H505.399ZM607.663 378.263C582.239 378.263 567.966 364.882 567.966 343.249C567.966 324.516 579.563 310.912 601.419 307.566L631.526 303.106C642.9 301.322 648.252 297.977 648.252 289.279C648.252 278.128 638.885 270.992 621.713 270.992C603.203 270.992 594.059 278.574 590.268 291.063H571.311C575.772 269.654 596.066 255.603 621.49 255.603C651.151 255.603 666.762 268.984 666.762 292.847V349.94C666.762 359.083 670.554 362.205 678.359 362.205H685.05V376.479H673.676C658.511 376.479 650.482 368.896 650.036 355.069H649.144C642.9 369.788 627.511 378.263 607.663 378.263ZM611.008 362.874C635.094 362.874 648.698 347.04 648.698 323.178V307.789C645.13 314.48 640.223 317.602 631.749 318.94L604.764 323.178C592.721 325.185 586.922 333.213 586.922 342.803C586.922 355.738 595.843 362.874 611.008 362.874ZM754.837 376.479V220.367H773.57L860.1 346.594V220.367H878.834V376.479H860.1L773.57 251.143V376.479H754.837ZM959.993 378.932C926.763 378.932 903.793 353.508 903.793 316.71C903.793 280.581 926.763 255.603 959.993 255.603C993.222 255.603 1016.19 280.581 1016.19 316.71C1016.19 353.508 993.222 378.932 959.993 378.932ZM959.993 362.874C983.187 362.874 997.237 345.479 997.237 316.71C997.237 288.61 983.187 271.661 959.993 271.661C936.799 271.661 922.749 288.61 922.749 316.71C922.749 345.479 936.799 362.874 959.993 362.874ZM1082.66 378.932C1050.54 378.932 1032.7 365.997 1031.59 341.911H1050.77C1051.88 356.184 1063.48 363.098 1081.77 363.098C1099.16 363.098 1108.31 355.515 1108.31 342.803C1108.31 335.666 1103.85 330.314 1094.03 328.307L1063.93 322.062C1044.75 318.271 1034.49 308.012 1034.49 291.509C1034.49 272.107 1050.99 255.603 1078.2 255.603C1104.96 255.603 1123.02 269.43 1125.92 292.401H1106.97C1105.18 279.689 1094.03 271.438 1077.98 271.438C1061.92 271.438 1053 279.243 1053 289.948C1053 298.646 1059.02 303.106 1069.5 305.336L1098.27 311.135C1118.12 315.149 1126.82 325.631 1126.82 341.911C1126.82 364.213 1108.97 378.932 1082.66 378.932ZM1185.39 376.479C1169.55 376.479 1159.74 367.335 1159.74 352.393V273.891H1135.66V258.28H1159.74V220.367H1178.25V258.28H1210.14V273.891H1178.25V350.386C1178.25 357.299 1182.04 361.09 1188.96 361.09H1210.14V376.479H1185.39ZM1230.86 376.479V258.28H1247.36L1249.14 277.236H1249.59C1255.39 263.186 1266.54 257.611 1278.81 257.611H1290.63V276.344H1278.58C1259.4 276.344 1249.37 286.826 1249.37 305.782V376.479H1230.86ZM1333.12 378.263C1307.7 378.263 1293.42 364.882 1293.42 343.249C1293.42 324.516 1305.02 310.912 1326.88 307.566L1356.98 303.106C1368.36 301.322 1373.71 297.977 1373.71 289.279C1373.71 278.128 1364.34 270.992 1347.17 270.992C1328.66 270.992 1319.52 278.574 1315.73 291.063H1296.77C1301.23 269.654 1321.52 255.603 1346.95 255.603C1376.61 255.603 1392.22 268.984 1392.22 292.847V349.94C1392.22 359.083 1396.01 362.205 1403.82 362.205H1410.51V376.479H1399.13C1383.97 376.479 1375.94 368.896 1375.49 355.069H1374.6C1368.36 369.788 1352.97 378.263 1333.12 378.263ZM1336.47 362.874C1360.55 362.874 1374.16 347.04 1374.16 323.178V307.789C1370.59 314.48 1365.68 317.602 1357.21 318.94L1330.22 323.178C1318.18 325.185 1312.38 333.213 1312.38 342.803C1312.38 355.738 1321.3 362.874 1336.47 362.874Z" fill="black"/>
<path d="M1412.8 253.394C1403.09 253.394 1396.11 246.416 1396.11 236.708C1396.11 227.076 1403.09 220.098 1412.8 220.098C1422.43 220.098 1429.33 227.076 1429.33 236.708C1429.33 246.416 1422.43 253.394 1412.8 253.394ZM1412.8 250.284C1420.68 250.284 1426.07 244.748 1425.92 236.708C1426.07 228.744 1420.68 223.208 1412.8 223.208C1404.76 223.208 1399.37 228.744 1399.52 236.708C1399.37 244.748 1404.76 250.284 1412.8 250.284ZM1405.67 245.809V227.607H1414.92C1417.95 227.607 1420.23 229.73 1420.23 232.537C1420.23 235.039 1418.86 236.708 1416.13 237.315V237.466C1418.03 237.846 1418.41 238.756 1418.79 239.666L1421.21 245.809H1417.95L1415.75 239.969C1415.37 239.059 1414.99 238.68 1413.48 238.68H1408.7V245.809H1405.67ZM1413.71 236.101C1415.83 236.101 1417.19 234.812 1417.19 232.992C1417.19 231.399 1415.98 230.185 1414.01 230.185H1408.7V236.101H1413.71Z" fill="black"/>
</svg>
